<?xml version="1.0" standalone="yes"?>

<svg version="1.1" viewBox="0.0 0.0 952.0 741.0" fill="none" stroke="none" stroke-linecap="square" stroke-miterlimit="10" xmlns="http://www.w3.org/2000/svg" xmlns:xlink="http://www.w3.org/1999/xlink"><clipPath id="p.0"><path d="m0 0l952.0 0l0 741.0l-952.0 0l0 -741.0z" clip-rule="nonzero"></path></clipPath><g clip-path="url(#p.0)"><path fill="#000000" fill-opacity="0.0" d="m0 0l952.65356 0l0 741.06036l-952.65356 0z" fill-rule="nonzero"></path><path fill="#efefef" d="m66.39219 313.7314l808.22046 -55.08661l8.188965 120.188995l-808.22046 55.08661z" fill-rule="nonzero"></path><path fill="#efefef" d="m410.9449 110.68767l138.11023 0l0 538.7716l-138.11023 0z" fill-rule="nonzero"></path><path fill="#e06666" fill-opacity="0.8115" d="m435.7966 179.74278l94.04721 0l0 400.66138l-94.04721 0z" fill-rule="nonzero"></path><path stroke="#efefef" stroke-width="2.0" stroke-linejoin="round" stroke-linecap="butt" d="m435.7966 179.74278l94.04721 0l0 400.66138l-94.04721 0z" fill-rule="nonzero"></path><path fill="#e06666" d="m474.28348 20.574802l9.480316 0l0 164.56694l-9.480316 0z" fill-rule="nonzero"></path><path fill="#e06666" d="m525.55646 242.93176l45.543274 0l0 10.771652l-45.543274 0z" fill-rule="nonzero"></path><path fill="#e06666" d="m560.32806 244.8819l0 -50.92914l10.7716675 0l0 50.92914z" fill-rule="nonzero"></path><path fill="#e06666" d="m388.8924 242.93176l50.92914 0l0 10.771652l-50.92914 0z" fill-rule="nonzero"></path><path fill="#e06666" d="m388.90027 244.8819l0 -50.92914l10.771637 0l0 50.92914z" fill-rule="nonzero"></path><path fill="#e06666" d="m399.6719 422.53543l40.1575 0l0 10.7716675l-40.1575 0z" fill-rule="nonzero"></path><path fill="#e06666" d="m394.12598 473.46457l0 -50.92914l10.7716675 0l0 50.92914z" fill-rule="nonzero"></path><path fill="#e06666" d="m525.55646 422.53543l40.15747 0l0 10.7716675l-40.15747 0z" fill-rule="nonzero"></path><path fill="#e06666" d="m562.23883 473.46457l0 -50.92914l10.7716675 0l0 50.92914z" fill-rule="nonzero"></path><path fill="#000000" fill-opacity="0.0" d="m377.33597 143.97638l30.078735 0l0 41.16536l-30.078735 0z" fill-rule="nonzero"></path><path fill="#000000" d="m395.74222 159.20387l0 16.8125l-3.40625 0l0 -10.90625l-4.21875 0l0 -2.5625l0.21875 0q2.0625 0 3.25 -0.84375q1.203125 -0.859375 1.4375 -2.5l2.71875 0z" fill-rule="nonzero"></path><path fill="#000000" fill-opacity="0.0" d="m552.5853 143.97638l30.078735 0l0 41.16536l-30.078735 0z" fill-rule="nonzero"></path><path fill="#000000" d="m568.5697 158.87575q2.46875 0 4.109375 1.484375q1.640625 1.46875 1.640625 3.765625q0 1.625 -0.78125 2.921875q-0.765625 1.296875 -3.234375 2.859375q-1.71875 1.09375 -2.546875 1.8125q-0.8125 0.703125 -1.265625 1.359375l7.9375 0l0 2.9375l-12.34375 0q0 -1.671875 0.59375 -2.953125q0.59375 -1.28125 1.703125 -2.296875q1.109375 -1.015625 4.21875 -3.078125q1.203125 -0.796875 1.765625 -1.578125q0.5625 -0.796875 0.5625 -1.703125q0 -1.140625 -0.6875 -1.859375q-0.6875 -0.734375 -1.828125 -0.734375q-1.265625 0 -1.953125 1.03125q-0.6875 1.03125 -0.71875 2.828125l-3.265625 0l0 -0.328125q0 -2.90625 1.65625 -4.6875q1.65625 -1.78125 4.4375 -1.78125z" fill-rule="nonzero"></path><path fill="#000000" fill-opacity="0.0" d="m701.4829 217.48032l30.078796 0l0 41.165344l-30.078796 0z" fill-rule="nonzero"></path><path fill="#000000" d="m717.1079 232.37968q2.28125 0 3.953125 1.328125q1.6875 1.328125 1.6875 3.328125q0 1.21875 -0.59375 2.15625q-0.59375 0.921875 -1.75 1.28125l0 0.046875q1.40625 0.328125 2.1875 1.375q0.78125 1.03125 0.78125 2.4375q0 2.46875 -1.8125 4.0q-1.796875 1.53125 -4.4375 1.53125q-2.828125 0 -4.53125 -1.609375q-1.703125 -1.609375 -1.703125 -4.328125l0 -0.203125l3.234375 0q0.09375 1.59375 0.859375 2.46875q0.78125 0.859375 2.09375 0.859375q1.21875 0 1.984375 -0.75q0.765625 -0.765625 0.765625 -1.890625q0 -1.25 -0.75 -1.875q-0.734375 -0.625 -2.78125 -0.625l-0.359375 0l0 -2.40625l0.578125 0.03125q1.4375 0 2.21875 -0.546875q0.78125 -0.5625 0.78125 -1.5625q0 -1.015625 -0.6875 -1.625q-0.671875 -0.609375 -1.703125 -0.609375q-1.140625 0 -1.859375 0.75q-0.703125 0.75 -0.71875 2.25l-3.234375 0q0.09375 -2.65625 1.671875 -4.234375q1.578125 -1.578125 4.125 -1.578125z" fill-rule="nonzero"></path><path fill="#000000" fill-opacity="0.0" d="m701.4829 401.17584l30.078796 0l0 41.165375l-30.078796 0z" fill-rule="nonzero"></path><path fill="#000000" d="m721.20166 416.40335l0 10.125l2.25 0l0 2.796875l-2.25 0l0 3.890625l-3.234375 0l0 -3.890625l-7.09375 0l0 -3.125l7.28125 -9.796875l3.046875 0zm-3.296875 4.28125l-4.34375 5.84375l4.40625 0l0 -5.84375l-0.0625 0z" fill-rule="nonzero"></path><path fill="#93c47d" fill-opacity="0.8192" d="m294.3676 403.72638l-4.913391 -93.921265l400.12598 -20.976349l4.913391 93.921234z" fill-rule="nonzero"></path><path fill="#93c47d" d="m644.89764 292.0656l0 -50.929123l10.7716675 0l0 50.929123z" fill-rule="nonzero"></path><path fill="#93c47d" d="m644.89764 434.5958l0 -50.92914l10.7716675 0l0 50.92914z" fill-rule="nonzero"></path><path fill="#93c47d" d="m323.91864 309.5748l0 -50.92914l10.771637 0l0 50.92914z" fill-rule="nonzero"></path><path fill="#93c47d" d="m323.91864 452.10498l0 -50.92914l10.771637 0l0 50.92914z" fill-rule="nonzero"></path><path fill="#93c47d" d="m645.0491 241.73508l50.834656 -3.3700867l0.6928711 10.740158l-50.834595 3.3700714z" fill-rule="nonzero"></path><path fill="#93c47d" d="m644.92194 423.99268l50.677185 -5.3858337l1.1338501 10.677185l-50.677185 5.3858337z" fill-rule="nonzero"></path><path fill="#93c47d" d="m282.8473 264.20776l50.614197 -5.8897705l1.2283325 10.677185l-50.614166 5.88974z" fill-rule="nonzero"></path><path fill="#93c47d" d="m282.8473 445.60672l50.614197 -5.8897705l1.2283325 10.677155l-50.614166 5.8897705z" fill-rule="nonzero"></path><path fill="#93c47d" d="m690.6025 325.0471l250.01575 -29.102386l1.2283325 10.677185l-250.01575 29.102356z" fill-rule="nonzero"></path><path fill="#93c47d" d="m48.328 378.2913l245.32285 -28.566925l1.1338501 9.952759l-245.32285 28.566925z" fill-rule="nonzero"></path><path fill="#e06666" d="m474.28348 569.4724l9.480316 0l0 164.56696l-9.480316 0z" fill-rule="nonzero"></path><path fill="#000000" fill-opacity="0.0" d="m552.5853 483.02625l30.078735 0l0 41.165344l-30.078735 0z" fill-rule="nonzero"></path><path fill="#000000" d="m573.5853 498.25375l0 2.8125l-6.9375 0l-0.671875 3.828125l0.046875 0.046875q0.640625 -0.640625 1.40625 -0.96875q0.78125 -0.328125 1.875 -0.328125q2.34375 0 3.765625 1.609375q1.4375 1.59375 1.4375 4.109375q0 2.484375 -1.8125 4.2655945q-1.796875 1.78125 -4.359375 1.78125q-2.71875 0 -4.484375 -1.421875q-1.765625 -1.421875 -1.828125 -3.9218445l3.40625 0q0.125 1.15625 0.875 1.84375q0.765625 0.6874695 1.875 0.6874695q1.265625 0 2.078125 -0.9530945q0.828125 -0.953125 0.828125 -2.28125q0 -1.40625 -0.796875 -2.28125q-0.796875 -0.875 -2.109375 -0.875q-0.90625 0 -1.5 0.34375q-0.578125 0.328125 -1.0625 1.0l-3.0625 0l1.640625 -9.296875l9.390625 0z" fill-rule="nonzero"></path><path fill="#000000" fill-opacity="0.0" d="m377.33597 483.02625l30.078735 0l0 41.165344l-30.078735 0z" fill-rule="nonzero"></path><path fill="#000000" d="m393.44534 497.92563q2.25 0 3.703125 1.25q1.453125 1.234375 1.734375 3.40625l-3.234375 0q-0.203125 -0.96875 -0.828125 -1.515625q-0.625 -0.5625 -1.421875 -0.5625q-1.390625 0 -2.25 1.375q-0.84375 1.359375 -0.96875 3.734375l0.046875 0.046875q0.6875 -1.0 1.609375 -1.4375q0.921875 -0.4375 2.171875 -0.4375q1.375 0 2.671875 0.75q1.296875 0.75 1.890625 2.046875q0.609375 1.28125 0.609375 2.671875q0 2.625 -1.671875 4.3905945q-1.671875 1.765625 -4.203125 1.765625q-3.171875 0 -4.828125 -2.265625q-1.640625 -2.2812195 -1.640625 -6.4218445q0 -3.78125 1.75 -6.28125q1.75 -2.515625 4.859375 -2.515625zm-2.953125 11.546875q0 1.265625 0.75 2.203125q0.75 0.9218445 1.96875 0.9218445q1.09375 0 1.828125 -0.9062195q0.734375 -0.90625 0.734375 -2.171875q0 -1.296875 -0.6875 -2.21875q-0.671875 -0.9375 -1.90625 -0.9375q-1.234375 0 -1.96875 0.859375q-0.71875 0.859375 -0.71875 2.25z" fill-rule="nonzero"></path><path fill="#000000" fill-opacity="0.0" d="m242.61154 434.9239l30.078735 0l0 41.165344l-30.078735 0z" fill-rule="nonzero"></path><path fill="#000000" d="m264.0178 450.1514l0 2.9375q-2.46875 2.234375 -3.9375 6.125q-1.453125 3.875 -1.546875 7.75l-3.65625 0q0.296875 -3.734375 1.765625 -7.234375q1.46875 -3.5 3.875 -6.390625l-7.96875 0l0 -3.1875l11.46875 0z" fill-rule="nonzero"></path><path fill="#000000" fill-opacity="0.0" d="m242.61154 246.01837l30.078735 0l0 41.165344l-30.078735 0z" fill-rule="nonzero"></path><path fill="#000000" d="m258.31467 260.91776q2.609375 0 4.109375 1.421875q1.5 1.40625 1.5 3.109375q0 1.21875 -0.609375 2.15625q-0.609375 0.921875 -1.828125 1.359375l0 0.046875q1.546875 0.375 2.34375 1.46875q0.796875 1.078125 0.796875 2.625q0 2.421875 -1.8125 3.859375q-1.8125 1.4375 -4.484375 1.4375q-2.765625 0 -4.578125 -1.40625q-1.796875 -1.40625 -1.796875 -3.859375q0 -1.59375 0.828125 -2.671875q0.828125 -1.09375 2.328125 -1.453125l0 -0.046875q-1.1875 -0.359375 -1.828125 -1.265625q-0.640625 -0.921875 -0.640625 -2.1875q0 -2.0625 1.65625 -3.328125q1.671875 -1.265625 4.015625 -1.265625zm-2.578125 4.90625q0 0.953125 0.71875 1.578125q0.71875 0.625 1.84375 0.625q1.140625 0 1.828125 -0.59375q0.703125 -0.609375 0.703125 -1.609375q0 -1.0625 -0.65625 -1.6875q-0.640625 -0.640625 -1.875 -0.640625q-1.140625 0 -1.859375 0.65625q-0.703125 0.65625 -0.703125 1.671875zm-0.390625 7.140625q0 1.21875 0.859375 2.046875q0.875 0.8125 2.125 0.8125q1.234375 0 2.046875 -0.796875q0.828125 -0.796875 0.828125 -2.03125q0 -1.15625 -0.828125 -1.921875q-0.828125 -0.78125 -2.078125 -0.78125q-1.21875 0 -2.09375 0.71875q-0.859375 0.703125 -0.859375 1.953125z" fill-rule="nonzero"></path></g></svg>

